PathFileType  4	(X/Y/Z) D:/Data/Berkelmans/SUB01/trc/slow_skatebelt
DataRate	CameraRate	NumFrames	NumMarkers	Units	OrigDataRate	OrigDataStartFrame	OrigNumFrames
100.0	100.0	9	31	m	100.0	701	800
Frame#	Time	LCAL			RCAL			C7			LSHO			RTIB2			RFEM2			LFEM2			RTIB3			RFEM1			LSIPS			RTIB1			LTIB2			RFEM3			RSHO			RKNEE_med			LKNEE_lat			RKNEE_lat			LMTP5			RMTP5			RSIAS			RSIPS			LSIAS			LKNEE_med			LANK_lat			LANK_med			RANK_lat			RANK_med			LTIB3			LTIB1			LFEM3			LFEM1			
		X1	Y1	Z1	X2	Y2	Z2	X3	Y3	Z3	X4	Y4	Z4	X5	Y5	Z5	X6	Y6	Z6	X7	Y7	Z7	X8	Y8	Z8	X9	Y9	Z9	X10	Y10	Z10	X11	Y11	Z11	X12	Y12	Z12	X13	Y13	Z13	X14	Y14	Z14	X15	Y15	Z15	X16	Y16	Z16	X17	Y17	Z17	X18	Y18	Z18	X19	Y19	Z19	X20	Y20	Z20	X21	Y21	Z21	X22	Y22	Z22	X23	Y23	Z23	X24	Y24	Z24	X25	Y25	Z25	X26	Y26	Z26	X27	Y27	Z27	X28	Y28	Z28	X29	Y29	Z29	X30	Y30	Z30	X31	Y31	Z31	

701	4.0100000	-0.1962219	0.0673069	-0.0645031	-0.1569294	0.1476224	0.0672878	-0.2209492	1.3946126	-0.0800243	-0.1295264	1.4412276	-0.2100402	-0.0300491	0.3854907	0.1501897	-0.0080089	0.5919126	0.1401121	-0.1447538	0.6094411	-0.1944380	-0.0727044	0.4031717	0.1081536	-0.0922720	0.6584663	0.1416509	-0.2105223	1.0467760	-0.1049594	-0.0272946	0.4534049	0.1401171	-0.1586869	0.3370409	-0.1715149	-0.0513762	0.5887821	0.1017892	-0.1463541	1.4030507	0.1590366	0.1030281	0.5472154	0.0384341	-0.0897990	0.4839581	-0.1518998	0.0802357	0.5322366	0.1366980	-0.0391025	0.0433358	-0.1392714	-0.0188754	0.0720600	0.1488499	-0.0301106	0.9856239	0.0823482	-0.2194538	1.0357804	0.0087262	-0.0174347	0.9846217	-0.1421140	-0.0959556	0.4984403	-0.0608314	-0.1404059	0.1016078	-0.1201110	-0.1153139	0.1092217	-0.0422769	-0.0891155	0.1625181	0.1231528	-0.0627767	0.1670025	0.0454160	-0.2038346	0.3514232	-0.1422874	-0.1719381	0.4044166	-0.1728267	-0.1996304	0.6251895	-0.1491281	-0.1924617	0.7048018	-0.1908284
702	4.0200000	-0.2020437	0.0674224	-0.0643798	-0.1410858	0.1377010	0.0707262	-0.2211149	1.3947070	-0.0800562	-0.1295223	1.4411805	-0.2099325	-0.0239045	0.3812931	0.1516985	-0.0078803	0.5922650	0.1410924	-0.1485816	0.6099048	-0.1946681	-0.0688094	0.3972028	0.1105711	-0.0931779	0.6575696	0.1447461	-0.2115324	1.0471138	-0.1045397	-0.0249397	0.4492670	0.1420516	-0.1642324	0.3371447	-0.1713665	-0.0523218	0.5883846	0.1039225	-0.1467883	1.4029653	0.1590321	0.0982618	0.5476015	0.0386466	-0.0946878	0.4836740	-0.1519561	0.0796171	0.5324316	0.1367966	-0.0448560	0.0433022	-0.1392874	-0.0012511	0.0684794	0.1493319	-0.0310559	0.9854193	0.0823492	-0.2201731	1.0358951	0.0091037	-0.0184656	0.9841372	-0.1420128	-0.1008950	0.4979832	-0.0606970	-0.1461196	0.1016125	-0.1199073	-0.1211874	0.1092276	-0.0421026	-0.0744233	0.1558326	0.1247364	-0.0546912	0.1612442	0.0442947	-0.2092367	0.3515942	-0.1420136	-0.1774732	0.4044869	-0.1726254	-0.2036230	0.6259047	-0.1496318	-0.1952321	0.7054890	-0.1908996
703	4.0300000	-0.2078798	0.0674327	-0.0642338	-0.1259855	0.1282481	0.0731016	-0.2212438	1.3947558	-0.0800040	-0.1294531	1.4411298	-0.2097524	-0.0188017	0.3769165	0.1530641	-0.0083676	0.5924888	0.1418839	-0.1520858	0.6100921	-0.1946594	-0.0652866	0.3909870	0.1131708	-0.0942253	0.6568882	0.1475438	-0.2122436	1.0472677	-0.1041944	-0.0228785	0.4447063	0.1438072	-0.1695239	0.3371237	-0.1709626	-0.0535473	0.5881130	0.1057131	-0.1472496	1.4029536	0.1590427	0.0957844	0.5474850	0.0388332	-0.0995190	0.4833624	-0.1518106	0.0784745	0.5322245	0.1367603	-0.0507513	0.0432889	-0.1391646	0.0177915	0.0655920	0.1502478	-0.0316597	0.9852151	0.0824366	-0.2210780	1.0360579	0.0096541	-0.0195918	0.9837355	-0.1418585	-0.1054747	0.4977292	-0.0604494	-0.1515689	0.1015885	-0.1196985	-0.1268196	0.1092153	-0.0419807	-0.0596848	0.1492579	0.1264471	-0.0295666	0.1570613	0.0492556	-0.2146573	0.3518715	-0.1416731	-0.1827448	0.4044779	-0.1723628	-0.2072182	0.6264662	-0.1500273	-0.1983323	0.7057982	-0.1914161
704	4.0400000	-0.2136182	0.0674335	-0.0641627	-0.1096544	0.1190902	0.0751181	-0.2214324	1.3948164	-0.0798365	-0.1294407	1.4410187	-0.2095753	-0.0118802	0.3726207	0.1529236	-0.0086217	0.5921016	0.1434434	-0.1554324	0.6100095	-0.1942306	-0.0619211	0.3846815	0.1159346	-0.0954126	0.6563502	0.1496807	-0.2132506	1.0473433	-0.1035936	-0.0211312	0.4401340	0.1454236	-0.1749586	0.3373662	-0.1707592	-0.0553098	0.5877538	0.1071190	-0.1476439	1.4028561	0.1592455	0.0927756	0.5468868	0.0388388	-0.1041935	0.4831685	-0.1516039	0.0767394	0.5317940	0.1364963	-0.0563342	0.0432617	-0.1391130	0.0369235	0.0631041	0.1507363	-0.0325408	0.9850044	0.0826320	-0.2217096	1.0361265	0.0100939	-0.0207599	0.9830743	-0.1417240	-0.1117026	0.4977497	-0.0597289	-0.1572018	0.1017033	-0.1195304	-0.1325137	0.1090778	-0.0417898	-0.0441817	0.1437815	0.1276385	-0.0170579	0.1520806	0.0502195	-0.2198612	0.3522375	-0.1413212	-0.1878629	0.4046791	-0.1721167	-0.2107162	0.6268459	-0.1503621	-0.2012534	0.7059209	-0.1920967
705	4.0500000	-0.2193261	0.0678662	-0.0642410	-0.0954345	0.1100778	0.0787957	-0.2215515	1.3947481	-0.0796017	-0.1294596	1.4407796	-0.2093076	-0.0093745	0.3678850	0.1557638	-0.0103052	0.5913331	0.1438761	-0.1585527	0.6100327	-0.1940210	-0.0559514	0.3786908	0.1170583	-0.0966862	0.6562951	0.1514052	-0.2138717	1.0473216	-0.1031274	-0.0194862	0.4353427	0.1472032	-0.1799801	0.3376463	-0.1705723	-0.0577924	0.5868558	0.1100519	-0.1479098	1.4027047	0.1596282	0.0890443	0.5459208	0.0386545	-0.1087420	0.4829035	-0.1513746	0.0745347	0.5306893	0.1361195	-0.0619383	0.0431044	-0.1390490	0.0561665	0.0611861	0.1505345	-0.0329760	0.9848357	0.0830092	-0.2225549	1.0361613	0.0107869	-0.0218135	0.9825167	-0.1413883	-0.1152238	0.4972384	-0.0596127	-0.1629811	0.1017210	-0.1194748	-0.1380179	0.1091598	-0.0416264	-0.0290272	0.1377570	0.1293136	-0.0038576	0.1473376	0.0509432	-0.2247495	0.3526659	-0.1408844	-0.1927846	0.4050410	-0.1717704	-0.2142497	0.6272949	-0.1503523	-0.2041687	0.7061026	-0.1925974
706	4.0600000	-0.2249634	0.0677452	-0.0640126	-0.0804734	0.1017018	0.0824871	-0.2217376	1.3947540	-0.0792454	-0.1296514	1.4406056	-0.2089925	-0.0045179	0.3634033	0.1571797	-0.0128648	0.5903926	0.1439616	-0.1622001	0.6106246	-0.1931258	-0.0525837	0.3718154	0.1200008	-0.0983099	0.6565020	0.1525149	-0.2149396	1.0473596	-0.1023265	-0.0180397	0.4302433	0.1489649	-0.1844166	0.3374582	-0.1702259	-0.0611131	0.5864903	0.1109175	-0.1480621	1.4025570	0.1599647	0.0849394	0.5445875	0.0383168	-0.1126081	0.4826810	-0.1511926	0.0719656	0.5295670	0.1357233	-0.0676635	0.0431125	-0.1390233	0.0750662	0.0599210	0.1496379	-0.0335525	0.9846476	0.0833783	-0.2230878	1.0362078	0.0113724	-0.0229972	0.9820781	-0.1410908	-0.1186598	0.4968159	-0.0594024	-0.1686334	0.1017750	-0.1193610	-0.1437446	0.1090861	-0.0414638	-0.0140715	0.1323583	0.1308118	0.0077283	0.1432313	0.0512631	-0.2294757	0.3528972	-0.1406025	-0.1973382	0.4052573	-0.1714285	-0.2175404	0.6278082	-0.1501058	-0.2069370	0.7064315	-0.1925354
707	4.0700000	-0.2306132	0.0678794	-0.0639306	-0.0657261	0.0940082	0.0854726	-0.2219761	1.3947372	-0.0788459	-0.1298672	1.4402595	-0.2086153	0.0000513	0.3591766	0.1586842	-0.0167674	0.5887506	0.1440718	-0.1650638	0.6104455	-0.1932424	-0.0490655	0.3651532	0.1227181	-0.1003070	0.6568145	0.1530887	-0.2156373	1.0472559	-0.1017647	-0.0167081	0.4253551	0.1509065	-0.1890177	0.3378626	-0.1700281	-0.0654589	0.5852881	0.1118373	-0.1481221	1.4025016	0.1602640	0.0799740	0.5427361	0.0377840	-0.1164956	0.4824468	-0.1509426	0.0689423	0.5279064	0.1351151	-0.0734738	0.0431490	-0.1389396	0.0946230	0.0597977	0.1496125	-0.0338534	0.9844691	0.0839532	-0.2237291	1.0361898	0.0122129	-0.0241212	0.9815432	-0.1405497	-0.1220348	0.4965556	-0.0589568	-0.1741237	0.1018334	-0.1191356	-0.1518109	0.1088443	-0.0403613	0.0001323	0.1268778	0.1324779	0.0182064	0.1410055	0.0512358	-0.2337128	0.3533067	-0.1402859	-0.2012637	0.4056643	-0.1711593	-0.2204872	0.6283436	-0.1495994	-0.2094254	0.7070648	-0.1918485
708	4.0800000	-0.2362721	0.0678733	-0.0637215	-0.0517023	0.0872483	0.0882216	-0.2220855	1.3946479	-0.0785055	-0.1299332	1.4400420	-0.2082532	0.0042549	0.3549092	0.1608246	-0.0206340	0.5870706	0.1442298	-0.1682200	0.6107384	-0.1927521	-0.0485356	0.3587060	0.1268699	-0.1027147	0.6571038	0.1533868	-0.2166227	1.0471461	-0.1008512	-0.0154527	0.4209430	0.1527189	-0.1933024	0.3382188	-0.1694394	-0.0699460	0.5841224	0.1124235	-0.1482758	1.4023632	0.1606639	0.0747349	0.5407782	0.0371553	-0.1198205	0.4823140	-0.1505128	0.0658357	0.5260369	0.1343959	-0.0792767	0.0430264	-0.1388953	0.1119165	0.0597203	0.1477764	-0.0340120	0.9842710	0.0845244	-0.2240937	1.0361354	0.0129934	-0.0250205	0.9812310	-0.1399967	-0.1253558	0.4963068	-0.0584650	-0.1796966	0.1018763	-0.1188703	-0.1561029	0.1092046	-0.0404715	0.0138502	0.1226252	0.1333268	0.0321773	0.1352915	0.0511332	-0.2378572	0.3538017	-0.1398480	-0.2053815	0.4058755	-0.1705987	-0.2231200	0.6289849	-0.1488867	-0.2115663	0.7077691	-0.1906755
709	4.0900000	-0.2419467	0.0680112	-0.0636669	-0.0385734	0.0813519	0.0901481	-0.2222112	1.3945482	-0.0780334	-0.1299465	1.4397607	-0.2078277	0.0081069	0.3525254	0.1615884	-0.0249709	0.5854656	0.1447200	-0.1752244	0.6111396	-0.1901065	-0.0457811	0.3537634	0.1292498	-0.1054860	0.6570867	0.1534311	-0.2174860	1.0467191	-0.0998639	-0.0143521	0.4174492	0.1537742	-0.1970517	0.3384321	-0.1692367	-0.0747459	0.5832676	0.1123996	-0.1482668	1.4022204	0.1612972	0.0694142	0.5386368	0.0364817	-0.1230590	0.4821898	-0.1500399	0.0626043	0.5242492	0.1336898	-0.0848149	0.0431261	-0.1388275	0.1273354	0.0603408	0.1455747	-0.0343666	0.9842297	0.0850613	-0.2247017	1.0359883	0.0139983	-0.0259125	0.9808854	-0.1393923	-0.1285762	0.4962210	-0.0577917	-0.1852408	0.1019986	-0.1186717	-0.1617523	0.1091491	-0.0400884	0.0264204	0.1193695	0.1334587	0.0374963	0.1320519	0.0532912	-0.2418309	0.3542870	-0.1394707	-0.2086734	0.4062162	-0.1702359	-0.2256969	0.6295411	-0.1480202	-0.2134738	0.7084287	-0.1894092
